<svg width="970" height="25" viewBox="0 0 970 25" fill="none" xmlns="http://www.w3.org/2000/svg">
<path d="M919.654 5.68001C932.255 5.78619 948.764 5.82501 954.902 6.5018C958.052 6.32101 963.403 6.10963 970 6.00357V24.9998H0.00013206C8.05614e-05 14.4997 -0.000104723 12.9997 8.05614e-05 5.74646C39 1.99971 69.2513 4.47186 89.5001 5.94355C100 6.7067 126.5 8.85825 147.5 7.99972C168.5 7.14118 186.641 3.78847 218.5 3.29229C243.987 2.89535 308 7.99972 308 7.99972C308 7.99972 373 0.37923 412.5 5.29229C452 10.2054 487.559 6.00668 504 6.11412C512.79 6.17156 546 10.5001 565.5 10.5001C580.589 10.5001 614.5 -3.50009 679.527 7.62598C690.508 8.77605 728.829 10.9963 744 10.5001C759.171 10.004 798.5 5.29229 798.5 5.29229C798.5 5.29229 839.932 0 846 0C867.788 0 897.745 5.49596 919.654 5.68001Z" fill="#F5F4F1"/>
</svg>
