<svg width="25" height="25" viewBox="0 0 25 25" fill="none" xmlns="http://www.w3.org/2000/svg">
<path d="M14.0271 15.3918L16.5076 17.8723C16.1287 18.595 16.0896 19.3137 16.488 19.7122L21.0154 24.2395C21.5857 24.8098 22.8279 24.4973 23.781 23.5403C24.738 22.5833 25.0505 21.345 24.4802 20.7747L19.9568 16.2473C19.5544 15.8489 18.8357 15.8879 18.113 16.2629L15.6326 13.7864L14.0271 15.3918ZM9.26538 0.524658C4.57007 0.524658 0.765381 4.32935 0.765381 9.02466C0.765381 13.72 4.57007 17.5247 9.26538 17.5247C13.9607 17.5247 17.7654 13.72 17.7654 9.02466C17.7654 4.32935 13.9607 0.524658 9.26538 0.524658ZM9.26538 15.5247C5.67554 15.5247 2.76538 12.6145 2.76538 9.02466C2.76538 5.43481 5.67554 2.52466 9.26538 2.52466C12.8552 2.52466 15.7654 5.43481 15.7654 9.02466C15.7654 12.6145 12.8552 15.5247 9.26538 15.5247Z" fill="#203942"/>
</svg>
