<svg width="1440" height="20" viewBox="0 0 1440 20" fill="none" xmlns="http://www.w3.org/2000/svg">
<path d="M0 20H1600V1.80155C1600 1.80155 1397.5 0.135027 1389 0.00172806C1380.5 -0.131571 1314 7.49597 1284.5 5.77046C1255 4.04495 1171 0.135027 1171 0.135027L1011 2.63481C1011 2.63481 906.5 5.96786 889.5 5.96786C872.5 5.96786 768 1.80155 756 2.63481C744 3.46807 708 5.96786 694 8.46764C680 10.9674 597 5.96786 597 5.96786L558 5.13459L417 4.30133L320 1.80155L227 3.30141L137 0.135027L51 4.30133L0 1.80155V20Z" fill="#203942"/>
</svg>
