<svg width="1439" height="21" viewBox="0 0 1439 21" fill="none" xmlns="http://www.w3.org/2000/svg">
<path d="M-81.2346 0.524658H1518.77V18.7231C1518.77 18.7231 1316.27 20.3896 1307.77 20.5229C1299.27 20.6562 1232.77 13.0287 1203.27 14.7542C1173.77 16.4797 1089.77 20.3896 1089.77 20.3896L929.765 17.8898C929.765 17.8898 825.265 14.5568 808.265 14.5568C791.265 14.5568 686.765 18.7231 674.765 17.8898C662.765 17.0566 626.765 14.5568 612.765 12.057C598.765 9.55723 515.765 14.5568 515.765 14.5568L476.765 15.3901L335.765 16.2233L238.765 18.7231L145.765 17.2232L55.7654 20.3896L-30.2346 16.2233L-81.2346 18.7231V0.524658Z" fill="#203942"/>
</svg>
