<svg width="1439" height="15" viewBox="0 0 1439 15" fill="none" xmlns="http://www.w3.org/2000/svg">
<path d="M-81.2346 20.5247H1518.77V2.32621C1518.77 2.32621 1316.27 0.659685 1307.77 0.526386C1299.27 0.393087 1232.77 8.02063 1203.27 6.29512C1173.77 4.5696 1089.77 0.659685 1089.77 0.659685L929.765 3.15947C929.765 3.15947 825.265 6.49251 808.265 6.49251C791.265 6.49251 686.765 2.32621 674.765 3.15947C662.765 3.99273 626.765 6.49251 612.765 8.9923C598.765 11.4921 515.765 6.49251 515.765 6.49251L476.765 5.65925L335.765 4.82599L238.765 2.32621L145.765 3.82607L55.7654 0.659685L-30.2346 4.82599L-81.2346 2.32621V20.5247Z" fill="#203942"/>
</svg>
